<svg width="319" height="319" viewBox="0 0 319 319" fill="none" xmlns="http://www.w3.org/2000/svg">
<path d="M261.159 0H240.126V319H261.159C272.727 319 282.192 309.535 282.192 297.967V21.0328C282.192 9.46471 272.727 0 261.159 0Z" fill="#0A62BF"/>
<path d="M227.319 127.951L261.159 21.0334C261.159 9.4647 251.695 0 240.127 0H213.835L159.5 14.7911L105.165 0H57.8404C46.2723 0 36.8076 9.46471 36.8076 21.0328V297.967C36.8076 309.535 46.2723 319 57.8404 319H240.126C251.694 319 261.159 309.535 261.159 297.967V234.868L227.319 127.951Z" fill="#0A62BF"/>
<path d="M261.159 21.0328V234.868L240.126 241.879L205.071 138.467L240.126 21.0328H261.159Z" fill="#FFF3D4"/>
<path d="M213.835 0L208.577 35.0551H152.489L187.544 0H213.835Z" fill="#C1B8B5"/>
<path d="M187.544 0V35.0551H110.423L105.165 0H187.544Z" fill="#D8D1D0"/>
<path d="M57.8403 21.0328V297.967H198.06L240.126 241.879V21.0328H57.8403Z" fill="white"/>
<path d="M198.06 234.868V297.967L261.159 234.868H198.06Z" fill="#FFD159"/>
<path d="M203.319 0V38.5604C203.319 41.46 200.961 43.8189 198.06 43.8189H120.939C118.04 43.8189 115.681 41.4607 115.681 38.5604V0H105.165V38.5604C105.165 47.2581 112.24 54.3353 120.939 54.3353H198.06C206.759 54.3353 213.835 47.2581 213.835 38.5604V0H203.319Z" fill="#554F4E"/>
<path d="M127.95 119.187H106.917V175.275H127.95V119.187Z" fill="#A3FBE5"/>
<path d="M170.016 98.1536H148.983V175.274H170.016V98.1536Z" fill="#4CF5CB"/>
<path d="M212.082 77.1207H191.049V175.274H212.082V77.1207Z" fill="#2DD4AA"/>
<path d="M141.096 240.127H99.9067C97.0027 240.127 94.6482 237.773 94.6482 234.868C94.6482 231.963 97.0027 229.61 99.9067 229.61H141.096C144 229.61 146.355 231.963 146.355 234.868C146.355 237.773 144 240.127 141.096 240.127Z" fill="#554F4E"/>
<path d="M182.285 210.329H99.906C97.002 210.329 94.6475 207.976 94.6475 205.071C94.6475 202.166 97.002 199.812 99.906 199.812H182.285C185.189 199.812 187.544 202.166 187.544 205.071C187.544 207.976 185.189 210.329 182.285 210.329Z" fill="#554F4E"/>
<path d="M219.093 180.533H99.9065C97.0024 180.533 94.6479 178.179 94.6479 175.274C94.6479 172.37 97.0024 170.016 99.9065 170.016H219.093C221.997 170.016 224.352 172.37 224.352 175.274C224.352 178.179 221.997 180.533 219.093 180.533Z" fill="#554F4E"/>
</svg>
