<!DOCTYPE svg PUBLIC "-//W3C//DTD SVG 1.1//EN" "http://www.w3.org/Graphics/SVG/1.1/DTD/svg11.dtd">
<!-- Uploaded to: SVG Repo, www.svgrepo.com, Transformed by: SVG Repo Mixer Tools -->
<svg version="1.1" id="Layer_1" xmlns="http://www.w3.org/2000/svg" xmlns:xlink="http://www.w3.org/1999/xlink" viewBox="0 0 512 512" xml:space="preserve" width="800px" height="800px" fill="#000000">
<g id="SVGRepo_bgCarrier" stroke-width="0"/>
<g id="SVGRepo_tracerCarrier" stroke-linecap="round" stroke-linejoin="round"/>
<g id="SVGRepo_iconCarrier"> <path style="fill:#0A62BF;" d="M419.165,0h-33.758v512h33.758c18.567,0,33.758-15.191,33.758-33.758V33.758 C452.923,15.191,437.732,0,419.165,0z"/> <path style="fill:#0A62BF;" d="M364.851,205.363l54.314-171.604C419.165,15.191,403.974,0,385.407,0h-42.198L256,23.74L168.791,0 H92.835C74.268,0,59.077,15.191,59.077,33.758v444.484c0,18.567,15.191,33.758,33.758,33.758h292.571 c18.567,0,33.758-15.191,33.758-33.758V376.967L364.851,205.363z"/> <polygon style="fill:#FFF3D4;" points="419.165,33.758 419.165,376.967 385.407,388.22 329.143,222.242 385.407,33.758 "/> <polygon style="fill:#C1B8B5;" points="343.209,0 334.769,56.264 244.747,56.264 301.011,0 "/> <polygon style="fill:#D8D1D0;" points="301.011,0 301.011,56.264 177.231,56.264 168.791,0 "/> <polygon style="fill:#FFFFFF;" points="92.835,33.758 92.835,478.242 317.89,478.242 385.407,388.22 385.407,33.758 "/> <polygon style="fill:#FFD159;" points="317.89,376.967 317.89,478.242 419.165,376.967 "/> <path style="fill:#554F4E;" d="M326.33,0v61.89c0,4.654-3.785,8.44-8.44,8.44H194.11c-4.654,0-8.44-3.785-8.44-8.44V0h-16.879v61.89 c0,13.96,11.357,25.319,25.319,25.319h123.78c13.961,0,25.319-11.359,25.319-25.319V0H326.33z"/> <rect x="171.604" y="191.297" style="fill:#A3FBE5;" width="33.758" height="90.022"/> <rect x="239.121" y="157.538" style="fill:#4CF5CB;" width="33.758" height="123.78"/> <rect x="306.637" y="123.78" style="fill:#2DD4AA;" width="33.758" height="157.538"/> <g> <path style="fill:#554F4E;" d="M226.462,385.407h-66.11c-4.661,0-8.44-3.778-8.44-8.44s3.779-8.44,8.44-8.44h66.11 c4.661,0,8.44,3.778,8.44,8.44S231.122,385.407,226.462,385.407z"/> <path style="fill:#554F4E;" d="M292.571,337.582h-132.22c-4.661,0-8.44-3.778-8.44-8.44s3.779-8.44,8.44-8.44h132.22 c4.661,0,8.44,3.778,8.44,8.44S297.232,337.582,292.571,337.582z"/> <path style="fill:#554F4E;" d="M351.648,289.758H160.352c-4.661,0-8.44-3.778-8.44-8.44s3.779-8.44,8.44-8.44h191.297 c4.661,0,8.44,3.778,8.44,8.44S356.309,289.758,351.648,289.758z"/> </g> </g>
</svg>